<svg xmlns="http://www.w3.org/2000/svg" viewBox="0 0 64 64" role="img" aria-label="Up The Spout">
  <rect width="64" height="64" rx="16" fill="#12284A"/>
  <path d="M23 25 V36 A10 10 0 0 0 33 46 H39" fill="none" stroke="#FF7A21" stroke-width="9" stroke-linecap="round" stroke-linejoin="round"/>
  <path d="M9 13 V16 A5 5 0 0 0 14 21 H37 A5 5 0 0 0 42 16 V13" fill="none" stroke="#FFFFFF" stroke-width="4.5" stroke-linecap="round" stroke-linejoin="round"/>
  <path d="M49 44.5 C49 44.5 44.6 49.6 44.6 52.6 A4.4 4.4 0 0 0 53.4 52.6 C53.4 49.6 49 44.5 49 44.5 Z" fill="#4DB0FF"/>
  <path d="M46 15.5 C47.5 9.5 52 6.5 57 7 C55 12.5 50.5 16 46 15.5 Z" fill="#FFD449"/>
  <path d="M48 13.6 C50.4 11.8 52.6 10.2 54.8 8.8" fill="none" stroke="#12284A" stroke-width="0.9" stroke-linecap="round"/>
</svg>
